# MagicaVoxel @ Ephtracy

# group
o 

# material
mtllib redcarpetblock.mtl
usemtl palette

# normals
vn -1 0 0
vn 1 0 0
vn 0 0 1
vn 0 0 -1
vn 0 -1 0
vn 0 1 0

# texcoords
vt 0.849609 0.5
vt 0.853516 0.5
vt 0.978516 0.5

# verts
v -2 0 2
v -2 0 -2
v -2 3.9 2
v -2 3.9 -2
v -2 4 2
v -2 4 -2
v 2 0 2
v 2 0 -2
v 2 3.9 2
v 2 3.9 -2
v 2 4 2
v 2 4 -2
v -2 0 2
v -2 3.9 2
v -2 4 2
v 2 0 2
v 2 3.9 2
v 2 4 2
v -2 0 -2
v -2 3.9 -2
v -2 4 -2
v 2 0 -2
v 2 3.9 -2
v 2 4 -2
v -2 0 2
v 2 0 2
v -2 0 -2
v 2 0 -2
v -2 4 2
v 2 4 2
v -1.6 4 1.6
v -1.5 4 1.6
v -1.6 4 1.5
v -1.5 4 1.5
v 1.2 4 1.4
v 1.3 4 1.4
v 1.2 4 1.3
v 1.3 4 1.3
v -0.2 4 0.7
v -0.0999999 4 0.7
v -0.2 4 0.6
v -0.0999999 4 0.6
v -1.2 4 0.4
v -1.1 4 0.4
v -1.2 4 0.3
v -1.1 4 0.3
v 1 4 0.3
v 1.1 4 0.3
v 1 4 0.2
v 1.1 4 0.2
v 0.4 4 -0.7
v 0.5 4 -0.7
v -1.4 4 -0.8
v -1.3 4 -0.8
v 0.4 4 -0.8
v 0.5 4 -0.8
v -1.4 4 -0.9
v -1.3 4 -0.9
v 1.3 4 -1.2
v 1.4 4 -1.2
v 1.3 4 -1.3
v 1.4 4 -1.3
v -0.5 4 -1.6
v -0.4 4 -1.6
v -0.5 4 -1.7
v -0.4 4 -1.7
v -2 4 -2
v 2 4 -2

# faces
f 3/3/1 2/3/1 1/3/1
f 4/3/1 2/3/1 3/3/1
f 5/1/1 4/1/1 3/1/1
f 6/1/1 4/1/1 5/1/1
f 7/3/2 8/3/2 9/3/2
f 9/3/2 8/3/2 10/3/2
f 9/1/2 10/1/2 11/1/2
f 11/1/2 10/1/2 12/1/2
f 16/3/3 14/3/3 13/3/3
f 17/1/3 15/1/3 14/1/3
f 17/3/3 14/3/3 16/3/3
f 18/1/3 15/1/3 17/1/3
f 19/3/4 20/3/4 22/3/4
f 20/1/4 21/1/4 23/1/4
f 22/3/4 20/3/4 23/3/4
f 23/1/4 21/1/4 24/1/4
f 27/3/5 26/3/5 25/3/5
f 28/3/5 26/3/5 27/3/5
f 29/1/6 30/1/6 31/1/6
f 31/1/6 30/1/6 32/1/6
f 29/1/6 31/1/6 33/1/6
f 31/2/6 32/2/6 33/2/6
f 32/1/6 30/1/6 34/1/6
f 33/2/6 32/2/6 34/2/6
f 33/1/6 34/1/6 35/1/6
f 34/1/6 30/1/6 35/1/6
f 35/1/6 30/1/6 36/1/6
f 33/1/6 35/1/6 37/1/6
f 35/2/6 36/2/6 37/2/6
f 36/1/6 30/1/6 38/1/6
f 37/2/6 36/2/6 38/2/6
f 33/1/6 37/1/6 39/1/6
f 37/1/6 38/1/6 39/1/6
f 39/1/6 38/1/6 40/1/6
f 33/1/6 39/1/6 41/1/6
f 39/2/6 40/2/6 41/2/6
f 40/1/6 38/1/6 42/1/6
f 41/2/6 40/2/6 42/2/6
f 33/1/6 41/1/6 43/1/6
f 41/1/6 42/1/6 43/1/6
f 43/1/6 42/1/6 44/1/6
f 33/1/6 43/1/6 45/1/6
f 43/2/6 44/2/6 45/2/6
f 44/1/6 42/1/6 46/1/6
f 45/2/6 44/2/6 46/2/6
f 42/1/6 38/1/6 47/1/6
f 46/1/6 42/1/6 47/1/6
f 47/1/6 38/1/6 48/1/6
f 45/1/6 46/1/6 49/1/6
f 46/1/6 47/1/6 49/1/6
f 47/2/6 48/2/6 49/2/6
f 48/1/6 38/1/6 50/1/6
f 49/2/6 48/2/6 50/2/6
f 45/1/6 49/1/6 51/1/6
f 49/1/6 50/1/6 51/1/6
f 51/1/6 50/1/6 52/1/6
f 33/1/6 45/1/6 53/1/6
f 45/1/6 51/1/6 53/1/6
f 53/1/6 51/1/6 54/1/6
f 51/2/6 52/2/6 55/2/6
f 54/1/6 51/1/6 55/1/6
f 52/1/6 50/1/6 56/1/6
f 55/2/6 52/2/6 56/2/6
f 53/2/6 54/2/6 57/2/6
f 33/1/6 53/1/6 57/1/6
f 54/1/6 55/1/6 58/1/6
f 57/2/6 54/2/6 58/2/6
f 55/1/6 56/1/6 58/1/6
f 38/1/6 30/1/6 59/1/6
f 58/1/6 56/1/6 59/1/6
f 57/1/6 58/1/6 59/1/6
f 56/1/6 50/1/6 59/1/6
f 50/1/6 38/1/6 59/1/6
f 59/1/6 30/1/6 60/1/6
f 57/1/6 59/1/6 61/1/6
f 59/2/6 60/2/6 61/2/6
f 60/1/6 30/1/6 62/1/6
f 61/2/6 60/2/6 62/2/6
f 57/1/6 61/1/6 63/1/6
f 61/1/6 62/1/6 63/1/6
f 63/1/6 62/1/6 64/1/6
f 57/1/6 63/1/6 65/1/6
f 63/2/6 64/2/6 65/2/6
f 64/1/6 62/1/6 66/1/6
f 65/2/6 64/2/6 66/2/6
f 29/1/6 33/1/6 67/1/6
f 33/1/6 57/1/6 67/1/6
f 65/1/6 66/1/6 67/1/6
f 57/1/6 65/1/6 67/1/6
f 66/1/6 62/1/6 68/1/6
f 67/1/6 66/1/6 68/1/6
f 62/1/6 30/1/6 68/1/6
